<?xml version="1.0" encoding="utf-8"?>
<svg viewBox="0 0 500 500" xmlns="http://www.w3.org/2000/svg">
  <g transform="matrix(0.023442, 0, 0, -0.023442, -202.97995, 503.673523)" fill="#000000" stroke="none" style="">
    <path d="M18890 21333 c-663 -35 -1103 -89 -1665 -204 -1838 -374 -3534 -1234 -4945 -2507 -160 -145 -547 -530 -700 -697 -1489 -1627 -2429 -3662 -2695 -5835 -86 -709 -100 -1480 -40 -2205 189 -2252 1116 -4400 2639 -6115 161 -180 554 -578 746 -754 1609 -1474 3599 -2403 5743 -2680 430 -56 712 -76 1197 -83 1056 -15 2018 109 3018 392 2963 839 5444 2980 6720 5800 484 1070 786 2211 891 3370 32 351 42 583 42 980 0 924 -98 1722 -321 2600 -368 1452 -1036 2798 -1975 3975 -1191 1494 -2777 2648 -4545 3308 -1028 383 -2059 595 -3170 652 -174 9 -797 11 -940 3z m1095 -343 c1396 -102 2627 -433 3825 -1026 1030 -510 1914 -1145 2725 -1959 1630 -1636 2656 -3768 2914 -6055 50 -442 56 -558 56 -1155 0 -597 -6 -717 -56 -1155 -224 -1991 -1029 -3864 -2324 -5410 -1203 -1436 -2783 -2518 -4550 -3116 -846 -287 -1645 -445 -2610 -516 -224 -17 -1055 -17 -1280 0 -666 49 -1225 136 -1810 281 -2463 612 -4625 2143 -6040 4276 -912 1375 -1480 2960 -1644 4585 -41 405 -46 516 -46 1055 0 539 5 650 46 1055 164 1626 732 3211 1644 4585 1623 2446 4210 4081 7090 4479 233 32 533 62 760 76 99 6 207 12 240 14 122 7 915 -3 1060 -14z"/>
    <path d="M18180 20469 c-113 -27 -371 -83 -573 -123 -202 -41 -371 -76 -374 -79 -5 -6 31 -357 43 -419 6 -30 33 -38 52 -15 5 6 13 53 17 102 14 192 36 220 203 259 166 39 188 35 211 -36 27 -85 253 -1180 255 -1233 1 -82 -21 -118 -102 -163 -59 -32 -63 -37 -60 -66 3 -27 7 -31 34 -34 17 -2 93 13 170 33 76 20 207 47 289 61 146 24 195 41 195 67 0 26 -17 36 -70 42 -121 14 -192 65 -224 161 -20 61 -256 1176 -256 1210 0 13 8 32 18 42 24 24 262 76 309 67 48 -9 98 -57 139 -136 30 -56 41 -69 60 -69 21 0 24 5 24 35 0 19 -7 52 -14 72 -8 21 -31 91 -51 156 -35 111 -38 117 -63 116 -15 0 -119 -23 -232 -50z"/>
    <path d="M20434 20396 c-12 -30 3 -52 51 -78 65 -35 92 -68 100 -121 8 -53 -185 -1170 -217 -1256 -25 -66 -59 -104 -123 -139 -39 -21 -50 -32 -50 -52 0 -24 3 -25 145 -46 80 -12 197 -33 261 -48 152 -34 159 -34 159 4 0 25 -9 35 -53 63 -68 44 -90 87 -89 177 0 58 186 1143 212 1239 5 21 22 51 38 66 25 25 32 27 83 22 102 -9 182 -68 228 -167 36 -79 43 -248 12 -347 -60 -199 -183 -281 -341 -228 -59 20 -73 13 -68 -31 4 -39 65 -72 164 -89 239 -41 430 104 490 371 24 110 16 251 -19 327 -50 109 -155 194 -287 231 -30 8 -136 27 -235 41 -99 14 -229 37 -290 50 -126 29 -163 31 -171 11z"/>
    <path d="M16386 20051 c-3 -5 -17 -380 -31 -833 -14 -452 -27 -839 -31 -859 -3 -19 -23 -62 -45 -94 -22 -32 -38 -63 -36 -69 7 -22 46 -16 133 17 49 19 144 50 212 67 130 35 158 53 126 84 -11 11 -35 16 -80 16 -137 0 -175 49 -190 246 -8 109 1 196 24 224 26 31 407 156 441 144 29 -11 179 -203 211 -272 31 -65 29 -124 -7 -168 -54 -69 -60 -81 -42 -99 15 -15 26 -12 135 29 65 25 151 54 189 65 237 67 225 63 225 86 0 32 -21 45 -62 39 -39 -7 -84 12 -118 49 -12 12 -238 306 -502 652 -265 347 -492 642 -506 658 -27 29 -37 33 -46 18z m232 -627 c176 -225 215 -283 201 -300 -8 -10 -206 -80 -335 -119 -35 -11 -38 7 -35 290 1 152 5 283 8 291 3 8 11 13 17 11 6 -2 71 -80 144 -173z"/>
    <path d="M22054 20001 c-226 -61 -409 -230 -538 -495 -123 -254 -166 -536 -112 -736 77 -280 324 -460 634 -460 112 0 192 19 283 66 147 77 280 223 378 414 209 406 198 811 -29 1041 -116 118 -259 178 -440 185 -83 3 -120 0 -176 -15z m313 -106 c251 -114 318 -482 167 -916 -96 -277 -222 -462 -365 -534 -122 -63 -297 -45 -397 40 -172 145 -196 492 -62 896 98 296 239 478 413 535 63 21 174 11 244 -21z"/>
    <path d="M15315 19609 c-328 -180 -457 -248 -683 -359 -133 -66 -245 -126 -248 -135 -8 -19 146 -406 163 -412 7 -3 20 1 29 8 17 14 17 19 -9 161 -19 103 -9 156 39 198 52 45 232 133 259 126 13 -3 36 -27 53 -53 42 -68 556 -1061 570 -1102 15 -43 15 -96 1 -124 -7 -12 -34 -46 -61 -75 -47 -50 -49 -54 -35 -75 8 -12 23 -23 33 -25 11 -1 71 27 134 64 63 37 187 101 275 144 165 79 189 96 183 127 -3 16 -15 18 -114 18 -101 0 -113 2 -147 25 -21 14 -53 48 -71 75 -36 54 -559 1054 -571 1093 -12 39 18 67 138 131 166 88 212 83 323 -35 27 -30 54 -54 60 -54 23 1 36 19 30 41 -9 37 -189 304 -206 307 -8 1 -73 -30 -145 -69z"/>
    <path d="M23177 19653 c-17 -17 -3 -48 47 -102 59 -64 73 -101 58 -154 -13 -47 -556 -1112 -589 -1155 -40 -52 -81 -74 -129 -68 -47 6 -78 -11 -73 -39 5 -21 -1 -18 194 -112 78 -38 228 -115 334 -172 181 -98 197 -104 250 -104 106 0 225 77 303 197 64 99 44 125 -47 60 -142 -103 -270 -115 -459 -42 -55 21 -94 44 -120 70 -35 34 -38 42 -33 77 8 59 591 1205 630 1237 27 23 36 25 83 19 46 -5 54 -4 68 16 8 12 13 26 10 31 -3 5 -54 32 -112 59 -59 27 -164 81 -233 119 -115 64 -164 81 -182 63z"/>
    <path d="M24286 19064 c-7 -18 4 -41 50 -100 45 -60 52 -104 27 -163 -22 -49 -668 -1017 -712 -1065 -37 -41 -105 -69 -147 -61 -18 3 -43 1 -54 -5 -40 -22 -24 -45 74 -103 51 -31 152 -99 225 -152 90 -66 138 -95 154 -93 32 5 31 29 -4 68 -52 59 -61 77 -61 126 0 33 9 64 30 103 29 55 657 994 697 1042 48 57 63 64 144 64 70 0 76 2 79 22 3 23 -37 54 -178 138 -36 21 -112 74 -169 117 -103 77 -143 93 -155 62z"/>
    <path d="M13920 18812 c-63 -49 -163 -119 -222 -156 -90 -56 -108 -72 -108 -92 0 -34 22 -39 91 -20 109 30 155 17 221 -65 38 -48 618 -878 679 -972 49 -76 57 -127 30 -191 -22 -50 -21 -80 4 -90 8 -3 48 22 91 57 43 34 146 107 229 162 83 55 151 108 153 118 6 28 -24 31 -98 7 -83 -27 -116 -19 -179 38 -44 40 -735 1026 -758 1082 -19 43 -12 99 17 138 27 36 20 72 -13 72 -12 0 -74 -40 -137 -88z"/>
    <path d="M24833 18568 c-156 -160 -203 -216 -197 -233 11 -28 49 -15 132 45 141 101 187 103 304 13 164 -125 167 -134 78 -250 -297 -391 -721 -922 -757 -947 -51 -36 -105 -38 -176 -6 -51 23 -83 20 -92 -9 -10 -32 4 -47 123 -132 64 -46 144 -106 177 -134 225 -191 228 -192 256 -159 11 14 10 22 -9 52 -59 101 -75 143 -68 190 3 25 17 65 31 90 35 62 745 971 773 990 21 14 27 13 55 0 63 -31 215 -159 232 -195 22 -46 16 -105 -20 -192 -14 -35 -24 -70 -21 -77 9 -23 43 -16 66 14 53 67 180 281 174 293 -3 8 -114 96 -247 196 -133 100 -345 265 -470 367 -126 102 -232 186 -236 186 -5 0 -53 -46 -108 -102z"/>
    <path d="M13433 18422 c-7 -4 -19 -23 -27 -43 -21 -50 -41 -63 -136 -88 -191 -50 -290 -160 -298 -333 -10 -188 127 -412 305 -500 64 -31 73 -33 173 -32 81 1 145 10 280 39 289 62 366 53 460 -52 114 -128 128 -282 35 -390 -121 -142 -335 -130 -585 31 -39 25 -80 46 -91 46 -28 0 -35 -27 -13 -52 45 -49 354 -298 371 -298 31 0 255 89 306 122 60 38 110 97 144 168 35 73 43 199 18 286 -58 203 -229 394 -398 446 -93 28 -220 21 -422 -23 -180 -39 -282 -43 -339 -15 -53 26 -121 121 -136 189 -18 79 -1 129 64 193 122 119 269 114 501 -19 85 -49 101 -55 113 -43 8 8 11 22 8 32 -12 34 -320 345 -333 336z"/>
    <path d="M19110 18383 c-2184 -69 -4197 -1051 -5600 -2733 -960 -1153 -1561 -2576 -1714 -4065 -51 -500 -51 -1080 0 -1580 302 -2935 2312 -5455 5106 -6400 638 -216 1242 -336 1938 -386 212 -15 757 -15 970 0 1013 72 1923 313 2815 745 2045 992 3563 2895 4073 5106 137 592 195 1104 195 1725 0 427 -25 765 -84 1150 -297 1946 -1345 3706 -2919 4902 -1187 901 -2592 1426 -4075 1522 -166 11 -557 19 -705 14z m615 -263 c1515 -90 2895 -609 4089 -1537 451 -351 916 -816 1278 -1280 848 -1086 1371 -2387 1512 -3763 55 -530 46 -1167 -24 -1700 -390 -2978 -2576 -5434 -5486 -6163 -875 -220 -1792 -272 -2714 -156 -916 115 -1852 430 -2672 900 -1834 1051 -3140 2858 -3553 4914 -93 465 -133 836 -142 1330 -16 851 105 1648 373 2453 724 2176 2457 3912 4628 4637 628 209 1312 338 1956 368 164 8 601 6 755 -3z"/>
    <path d="M19124 17811 c-23 -10 -52 -34 -65 -52 -22 -31 -24 -45 -27 -171 l-4 -138 -116 0 c-135 0 -183 -16 -223 -71 -22 -32 -24 -44 -27 -183 -4 -176 0 -205 35 -246 56 -67 39 -65 563 -67 530 -3 576 -1 622 31 60 40 73 76 77 221 4 160 -8 220 -52 263 -46 45 -75 52 -203 52 l-114 0 0 119 c0 130 -7 161 -48 205 -46 48 -77 56 -234 56 -118 0 -150 -4 -184 -19z m287 -445 c94 -45 144 -132 137 -240 -8 -126 -97 -216 -223 -224 -78 -5 -120 8 -174 54 -60 52 -85 105 -86 184 0 109 61 199 161 236 49 18 137 13 185 -10z"/>
    <path d="M16995 17479 c-71 -16 -141 -37 -154 -47 -72 -53 -82 -108 -51 -262 13 -60 21 -112 19 -115 -3 -2 -51 -14 -108 -26 -56 -12 -117 -32 -134 -43 -46 -31 -77 -82 -77 -127 0 -52 48 -275 67 -317 24 -50 80 -83 139 -83 49 0 965 191 1017 212 40 17 85 73 93 116 5 26 -1 79 -20 173 -32 153 -47 192 -86 220 -50 36 -96 39 -215 14 -61 -13 -113 -23 -116 -24 -3 0 -16 52 -29 116 -27 133 -47 170 -110 202 -55 28 -75 27 -235 -9z m229 -433 c96 -29 163 -110 173 -209 20 -192 -180 -332 -351 -247 -117 59 -169 202 -115 320 54 120 169 173 293 136z"/>
    <path d="M21400 17488 c-63 -32 -83 -69 -110 -199 -13 -63 -24 -116 -26 -117 -1 -2 -46 6 -100 18 -157 36 -239 17 -277 -62 -26 -56 -71 -298 -63 -340 8 -43 46 -92 85 -113 15 -7 250 -61 522 -119 530 -113 533 -113 597 -67 42 29 57 69 88 222 33 161 30 196 -25 250 -38 38 -53 44 -193 74 -48 11 -78 22 -78 30 0 7 9 57 20 110 24 118 25 147 4 192 -29 60 -67 79 -219 113 -76 16 -148 30 -160 30 -11 0 -41 -10 -65 -22z m179 -453 c87 -44 141 -130 141 -223 0 -186 -196 -305 -358 -217 -189 103 -169 375 33 450 47 17 141 13 184 -10z"/>
    <path d="M18188 17019 c-49 -14 -117 -74 -139 -123 -23 -50 -24 -134 -3 -184 67 -160 294 -183 391 -39 35 53 48 108 38 167 -10 57 -62 130 -112 158 -49 27 -122 35 -175 21z"/>
    <path d="M20255 16993 c-157 -82 -175 -294 -32 -390 153 -103 349 1 349 185 0 89 -45 162 -124 203 -47 24 -150 25 -193 2z"/>
    <path d="M19152 16598 c-14 -189 -31 -275 -77 -375 -55 -119 -144 -195 -269 -227 -86 -23 -152 0 -223 77 -70 76 -123 203 -123 296 0 25 -3 57 -7 69 l-6 24 -123 -7 c-68 -4 -138 -10 -156 -14 l-33 -7 4 -77 c5 -130 -38 -252 -122 -344 -73 -80 -154 -100 -268 -67 -144 41 -234 153 -340 424 -20 52 -43 96 -50 98 -8 1 -77 -10 -154 -26 l-140 -28 -6 -179 c-7 -191 -19 -256 -64 -345 -37 -74 -83 -104 -165 -108 -52 -3 -77 1 -118 18 -64 28 -154 120 -210 217 l-42 71 -67 -19 c-38 -10 -104 -29 -148 -42 l-80 -23 -6 -104 c-9 -152 -63 -276 -137 -314 -36 -19 -153 -46 -195 -46 -47 0 -70 21 -124 110 l-47 79 -36 -21 c-19 -11 -81 -48 -137 -81 l-103 -60 22 -36 c145 -242 231 -304 418 -303 112 0 253 29 337 68 81 39 179 139 228 235 l39 76 45 -32 c109 -77 222 -115 346 -115 222 0 397 117 482 320 15 36 28 66 29 68 1 2 27 -21 58 -51 115 -109 268 -175 431 -184 170 -10 291 40 426 176 l86 87 66 -61 c69 -65 161 -117 237 -134 66 -15 187 -13 255 4 151 38 318 150 396 264 19 28 36 50 39 50 3 0 20 -22 39 -50 74 -109 213 -210 350 -254 192 -62 392 -17 536 120 l57 56 55 -60 c62 -69 162 -138 248 -172 51 -20 77 -23 180 -23 102 0 132 4 200 27 99 33 185 83 251 148 l51 50 36 -73 c64 -129 160 -217 292 -269 52 -20 78 -23 200 -23 157 -1 222 15 328 78 l56 34 37 -63 c106 -183 278 -267 549 -268 88 0 123 4 174 22 124 43 217 125 278 244 13 27 21 53 16 57 -6 5 -170 76 -269 117 -7 2 -22 -14 -35 -37 -37 -66 -78 -85 -179 -84 -214 3 -287 72 -299 283 l-6 104 -80 23 c-44 13 -110 32 -147 43 l-68 19 -34 -56 c-42 -70 -106 -135 -165 -170 -36 -21 -61 -27 -132 -30 -114 -6 -164 16 -214 92 -54 81 -76 176 -82 359 -3 86 -7 157 -9 157 -2 0 -68 14 -146 30 -77 17 -144 30 -148 30 -4 0 -20 -35 -35 -77 -45 -127 -130 -295 -174 -345 -55 -62 -129 -97 -219 -105 -64 -5 -77 -3 -126 21 -64 32 -121 92 -159 169 -37 77 -47 133 -40 225 l6 81 -34 5 c-115 20 -275 43 -278 40 -2 -1 -10 -52 -17 -111 -12 -88 -22 -123 -53 -188 -40 -83 -92 -144 -145 -173 -76 -39 -209 -4 -301 80 -106 97 -165 264 -185 529 -5 74 -10 137 -10 142 0 4 -69 7 -153 7 l-153 0 -12 -162z"/>
    <path d="M14924 16544 c-60 -36 -111 -68 -113 -69 -3 -4 170 -310 313 -554 101 -172 131 -202 205 -209 58 -5 63 -3 296 145 202 129 230 152 246 201 21 62 7 111 -67 233 -80 133 -106 163 -161 179 -59 18 -97 7 -207 -60 l-97 -59 -27 45 c-107 181 -142 214 -227 214 -46 0 -64 -7 -161 -66z m441 -348 c115 -54 170 -176 133 -298 -12 -41 -81 -128 -101 -128 -15 0 -261 409 -252 418 15 16 73 31 120 31 33 1 67 -7 100 -23z"/>
    <path d="M23460 16588 c-32 -22 -76 -80 -142 -192 l-27 -45 -97 59 c-108 66 -148 78 -204 61 -59 -18 -82 -42 -159 -171 -75 -125 -88 -164 -77 -224 11 -57 46 -88 244 -214 226 -144 241 -152 287 -152 88 0 125 40 262 280 227 397 275 482 271 485 -1 1 -50 31 -108 66 -88 53 -113 64 -160 67 -45 3 -61 0 -90 -20z m-19 -379 c19 -7 38 -15 43 -19 4 -5 -49 -104 -120 -221 l-127 -213 -47 51 c-67 72 -86 153 -58 247 15 51 99 137 148 153 47 15 119 16 161 2z"/>
    <path d="M22374 16589 c-52 -12 -121 -71 -145 -123 -23 -50 -24 -134 -3 -184 67 -161 293 -184 390 -40 117 173 -38 395 -242 347z"/>
    <path d="M16122 16557 c-158 -60 -200 -262 -78 -375 53 -49 101 -65 176 -60 114 8 192 90 198 207 3 57 0 73 -25 121 -38 72 -97 110 -180 116 -32 2 -72 -2 -91 -9z"/>
    <path d="M18750 15620 c-1083 -36 -1849 -167 -2935 -500 -126 -39 -241 -76 -254 -83 -80 -41 -78 -191 4 -255 43 -34 87 -28 318 44 856 265 1514 400 2237 459 632 51 1706 53 2345 5 770 -59 1447 -193 2308 -460 125 -38 246 -70 268 -70 52 0 102 46 119 110 17 63 7 108 -32 146 -28 26 -70 42 -283 107 -1024 311 -1731 438 -2715 487 -277 14 -1078 20 -1380 10z"/>
    <path d="M19151 15214 c-212 -45 -309 -186 -228 -328 59 -103 245 -165 457 -153 179 10 305 60 364 144 23 34 29 52 29 96 0 160 -176 258 -455 256 -57 0 -132 -7 -167 -15z"/>
    <path d="M18284 15087 c-23 -18 -81 -61 -129 -95 l-87 -64 58 -32 c33 -18 98 -53 145 -78 l86 -45 132 92 c73 51 134 94 136 97 4 4 -271 151 -290 155 -5 1 -28 -12 -51 -30z"/>
    <path d="M20230 15088 c-30 -17 -95 -52 -143 -78 l-88 -47 136 -95 136 -95 142 75 c78 41 143 76 145 77 4 4 -259 195 -267 194 -3 -1 -31 -15 -61 -31z"/>
    <path d="M17355 15079 c-249 -26 -435 -150 -435 -290 0 -170 211 -255 503 -204 47 8 111 24 141 36 75 28 166 90 195 134 29 43 39 126 22 178 -36 108 -210 168 -426 146z"/>
    <path d="M21076 15079 c-83 -9 -182 -55 -214 -98 -84 -114 -27 -260 129 -334 115 -54 201 -72 354 -71 122 0 147 3 198 23 75 30 121 71 143 126 56 147 -89 291 -342 339 -109 20 -187 25 -268 15z"/>
    <path d="M16322 14687 l-114 -114 143 -51 c79 -29 149 -52 154 -52 13 0 231 218 224 224 -6 6 -274 106 -284 106 -5 0 -60 -51 -123 -113z"/>
    <path d="M22045 14748 c-71 -28 -132 -53 -134 -55 -7 -6 212 -223 225 -223 12 0 284 97 291 103 7 8 -218 222 -235 224 -9 0 -75 -22 -147 -49z"/>
    <path d="M22773 14706 c-71 -18 -128 -57 -155 -109 -30 -57 -32 -183 -4 -241 21 -42 98 -122 144 -149 l30 -17 74 49 c40 27 91 68 113 91 l40 41 -1 117 c0 146 -21 213 -69 223 -48 10 -116 8 -172 -5z"/>
    <path d="M15662 14692 c-33 -22 -66 -207 -52 -286 9 -45 17 -58 78 -116 38 -36 90 -76 116 -88 l47 -24 54 41 c94 71 135 142 135 234 0 102 -39 171 -123 214 -43 22 -68 27 -147 30 -52 2 -101 0 -108 -5z"/>
    <path d="M13764 14660 l-18 -29 -32 20 -32 20 -25 -33 c-46 -62 -194 -293 -265 -415 -750 -1292 -1046 -2845 -826 -4338 137 -925 462 -1790 966 -2567 39 -60 72 -108 75 -108 2 0 113 66 245 147 177 108 243 143 246 133 14 -42 118 -238 158 -297 36 -53 42 -69 32 -78 -7 -7 -92 -63 -188 -125 -96 -62 -177 -115 -179 -117 -3 -2 3 -17 12 -32 22 -37 22 -36 -13 -58 l-30 -19 118 -194 c259 -429 429 -657 654 -878 278 -274 545 -369 793 -284 122 43 217 101 394 243 87 69 186 143 219 164 34 21 62 44 62 50 0 31 -76 228 -120 312 -66 126 -178 292 -310 457 -61 77 -109 143 -108 147 6 16 230 259 239 259 19 0 6 23 -104 192 -151 229 -216 342 -298 513 -122 257 -230 548 -305 827 -21 77 -33 108 -44 108 -8 0 -103 -23 -210 -50 -107 -27 -198 -46 -202 -42 -12 12 -136 358 -192 537 -109 343 -182 643 -235 965 -102 612 -104 1158 -6 1693 13 71 26 132 29 135 4 3 179 -69 390 -160 l383 -165 172 655 c95 360 179 665 187 677 14 21 11 24 -176 120 -124 64 -190 104 -190 114 0 47 124 569 141 593 10 15 19 31 18 35 0 4 -156 108 -347 229 -191 122 -506 324 -699 448 -194 124 -355 226 -357 226 -3 0 -13 -13 -22 -30z m611 -523 c325 -208 590 -384 589 -391 -1 -6 -33 -55 -72 -107 -677 -913 -962 -1954 -856 -3129 65 -718 277 -1498 633 -2324 31 -71 48 -123 42 -129 -5 -5 -244 -152 -532 -327 -408 -248 -527 -316 -536 -307 -19 19 -173 279 -256 433 -204 377 -392 845 -512 1278 -461 1661 -229 3494 631 4987 118 205 254 410 268 402 6 -4 277 -177 601 -386z m559 -714 c-3 -10 -58 -260 -123 -556 -66 -296 -122 -541 -125 -544 -6 -6 -297 25 -304 32 -2 2 22 70 53 152 64 168 206 465 291 610 66 113 201 323 208 323 2 0 2 -8 0 -17z m157 -478 c81 -41 89 -47 77 -64 -32 -44 -272 -341 -274 -338 -1 1 17 92 41 202 54 243 54 245 60 245 3 0 46 -20 96 -45z m-45 -739 c-58 -219 -107 -400 -109 -402 -4 -4 -623 259 -634 269 -2 3 4 35 13 72 16 64 18 67 43 62 55 -11 421 -51 424 -46 2 2 84 104 182 227 98 122 179 221 181 219 2 -2 -43 -182 -100 -401z m-166 -3738 c-1 -17 -57 -238 -62 -244 -2 -2 -24 44 -47 102 -24 57 -40 108 -37 112 6 6 114 38 139 41 4 1 7 -5 7 -11z m179 -198 c77 -248 262 -667 384 -869 32 -52 56 -96 54 -97 -3 -3 -406 272 -434 296 -9 7 -95 -44 -318 -190 -168 -110 -310 -200 -314 -200 -15 0 -85 113 -148 240 -48 97 -60 127 -50 136 7 6 158 100 337 208 179 108 332 205 340 215 8 9 35 99 60 199 24 100 47 178 51 174 3 -4 21 -54 38 -112z m37 -1030 c153 -256 266 -416 489 -700 185 -234 310 -433 356 -567 l18 -52 -48 -35 c-27 -18 -109 -83 -184 -144 -205 -164 -358 -232 -490 -217 -313 35 -675 408 -1126 1158 -29 48 -51 92 -49 97 5 15 932 618 940 611 4 -3 46 -71 94 -151z m342 -82 c94 -66 172 -122 172 -126 -1 -4 -27 -35 -58 -70 l-58 -64 -105 159 c-133 199 -157 239 -138 228 8 -5 92 -62 187 -127z"/>
    <path d="M13706 13838 c4 -7 114 -143 243 -303 237 -292 271 -340 271 -382 0 -38 20 -26 42 24 11 25 36 70 55 100 18 29 36 60 39 68 9 22 -19 19 -40 -4 -10 -11 -31 -25 -47 -31 -24 -10 -33 -9 -59 7 -34 21 -110 109 -110 126 0 5 25 56 56 113 l55 104 44 0 c66 0 141 -19 160 -40 10 -11 18 -34 19 -51 3 -54 23 -44 60 29 19 37 50 95 70 127 39 65 35 96 -7 57 -32 -30 -50 -29 -454 23 -380 49 -408 52 -397 33z m289 -133 c65 -8 125 -15 132 -15 8 0 16 -6 19 -13 7 -18 -85 -179 -99 -174 -24 7 -193 217 -174 217 1 0 56 -7 122 -15z"/>
    <path d="M13430 13275 c0 -3 5 -14 12 -25 11 -17 5 -26 -45 -79 -82 -85 -111 -154 -111 -256 0 -68 4 -89 28 -137 42 -83 125 -161 225 -211 l84 -42 116 0 c107 0 120 2 167 27 171 90 229 348 114 506 -16 23 -37 42 -45 42 -19 0 -20 3 11 -66 33 -74 43 -174 21 -225 -65 -157 -297 -205 -497 -104 -162 82 -226 241 -144 357 41 58 129 104 227 120 46 7 76 16 74 22 -2 6 -53 26 -113 43 -113 34 -124 36 -124 28z"/>
    <path d="M13096 12413 c-3 -16 -10 -55 -16 -88 -6 -33 -17 -85 -25 -115 -18 -68 -18 -70 0 -70 8 0 21 13 30 30 8 16 26 37 40 46 23 15 41 12 317 -46 161 -34 303 -69 316 -77 13 -8 28 -28 34 -44 16 -46 35 -36 42 24 4 28 16 86 27 129 10 42 19 86 19 97 0 26 -17 27 -25 2 -14 -44 -45 -71 -83 -71 -34 0 -565 110 -605 125 -21 9 -37 36 -37 64 0 31 -28 25 -34 -6z"/>
    <path d="M12996 11908 c-3 -18 -8 -67 -11 -108 -3 -41 -7 -84 -8 -94 -3 -32 21 -29 39 6 30 61 53 78 103 78 47 0 328 -26 389 -36 29 -5 32 -7 20 -21 -7 -9 -141 -102 -298 -206 -157 -104 -288 -195 -291 -201 -4 -6 -9 -50 -12 -98 -5 -72 -3 -88 8 -88 8 0 21 13 30 29 25 49 51 61 135 61 105 0 478 -40 516 -55 19 -8 37 -26 48 -48 17 -37 33 -53 42 -44 5 4 22 155 27 236 3 40 -19 34 -39 -10 -34 -76 -69 -80 -374 -49 -107 11 -195 20 -197 20 -23 0 51 55 332 245 184 124 335 230 335 235 0 13 -22 15 -380 50 -342 34 -352 36 -379 98 -19 41 -29 40 -35 0z"/>
    <path d="M13670 10955 c-22 -68 -31 -70 -346 -73 -318 -4 -355 1 -374 48 -14 34 -30 39 -30 10 -3 -162 1 -285 8 -288 5 -1 14 15 21 37 18 63 38 71 172 71 87 0 119 -4 128 -14 8 -9 11 -65 9 -177 l-3 -164 -138 -3 -137 -3 -21 36 c-12 20 -26 34 -31 33 -10 -4 -14 -295 -4 -305 10 -11 24 8 30 42 13 68 24 70 346 70 157 0 298 -4 313 -8 17 -4 36 -22 49 -42 40 -68 46 -49 47 130 0 127 -3 165 -13 165 -7 0 -18 -18 -25 -39 -6 -22 -23 -49 -38 -61 -24 -19 -37 -20 -167 -18 l-141 3 -3 178 -2 177 155 0 c152 0 156 -1 180 -25 14 -13 25 -29 25 -35 0 -5 6 -10 14 -10 12 0 15 26 15 150 0 120 -3 150 -14 150 -7 0 -19 -16 -25 -35z"/>
    <path d="M13310 9983 c0 -4 17 -24 38 -46 33 -34 37 -44 37 -89 0 -47 -3 -53 -47 -93 -58 -52 -120 -75 -205 -75 -55 0 -68 4 -88 25 -25 24 -32 65 -19 100 4 9 24 25 45 36 22 11 39 24 39 29 0 5 -16 21 -35 35 -42 33 -71 26 -91 -21 -42 -101 27 -236 142 -275 50 -17 148 -17 197 0 47 16 102 63 124 105 38 74 9 185 -64 245 -34 28 -73 41 -73 24z"/>
    <path d="M13657 9523 c-14 -13 -6 -20 36 -32 64 -19 103 -54 136 -124 39 -78 46 -116 29 -140 -16 -21 -269 -100 -292 -91 -18 7 -50 125 -42 157 3 13 24 36 46 51 40 26 52 46 28 46 -24 0 -258 -82 -258 -90 0 -4 23 -13 51 -20 57 -14 74 -33 94 -109 10 -39 10 -52 1 -60 -7 -6 -63 -25 -124 -43 -85 -24 -117 -30 -130 -22 -22 13 -61 127 -62 177 0 39 26 75 75 103 14 8 17 15 10 22 -11 12 -165 -33 -165 -48 0 -4 16 -59 36 -122 19 -62 51 -171 69 -242 19 -71 39 -134 45 -140 16 -16 30 11 30 57 0 22 7 44 18 55 16 16 509 166 588 179 23 4 38 -2 62 -22 40 -33 50 -27 35 23 -6 20 -31 109 -55 197 -52 186 -58 199 -101 225 -32 20 -145 29 -160 13z"/>
    <path d="M14093 8737 c4 -88 -4 -94 -281 -229 -136 -66 -257 -124 -270 -129 -29 -11 -48 10 -83 93 -30 69 -26 98 17 139 24 23 32 49 14 49 -5 0 -41 -20 -80 -45 l-70 -45 84 -168 c46 -93 107 -220 136 -283 28 -63 55 -117 59 -122 10 -10 183 55 189 71 3 9 -14 12 -66 10 -48 -1 -76 3 -87 12 -22 19 -75 124 -75 150 0 18 43 42 258 147 141 69 270 129 286 134 33 10 79 -10 96 -41 12 -22 40 -27 40 -7 0 24 -145 317 -157 317 -9 0 -12 -16 -10 -53z"/>
    <path d="M14880 7131 c0 -49 -12 -90 -70 -242 -38 -100 -74 -187 -80 -193 -7 -7 -75 -11 -188 -11 -163 0 -180 2 -219 22 -58 30 -64 13 -16 -45 22 -26 54 -68 72 -94 17 -27 38 -48 46 -48 18 0 18 1 5 36 -15 37 -4 61 32 73 38 14 248 15 248 1 0 -13 -78 -190 -97 -219 -13 -20 -20 -22 -59 -16 -24 3 -44 3 -44 0 0 -3 24 -36 53 -73 30 -37 69 -88 87 -114 18 -27 38 -48 45 -48 7 0 11 26 11 73 0 73 16 122 123 370 l20 47 168 2 c202 1 220 0 255 -18 61 -32 62 -14 5 58 -24 29 -58 75 -76 101 -38 56 -62 52 -40 -6 25 -70 4 -81 -170 -92 l-124 -7 7 26 c14 58 88 235 102 247 12 10 22 10 47 1 55 -21 52 2 -10 80 -33 41 -70 91 -82 111 -34 56 -51 49 -51 -22z"/>
    <path d="M15255 6571 c-41 -10 -95 -39 -95 -51 0 -6 27 -10 61 -10 76 0 119 -20 182 -82 54 -54 68 -84 55 -113 -9 -20 -198 -168 -230 -180 -12 -5 -27 8 -57 48 -47 61 -53 106 -21 147 24 30 26 54 5 46 -23 -8 -205 -159 -205 -169 0 -5 25 -5 56 -1 l56 7 49 -53 c27 -29 49 -58 49 -66 0 -14 -150 -137 -197 -162 -24 -13 -27 -11 -69 33 -46 50 -84 118 -84 152 0 11 13 37 30 58 35 43 30 64 -8 39 -46 -30 -112 -86 -112 -96 0 -5 41 -61 90 -124 50 -64 118 -156 153 -204 39 -57 69 -89 81 -90 14 0 17 5 12 23 -4 12 -10 40 -13 62 -6 50 -12 44 252 242 274 206 247 191 323 168 35 -11 27 10 -31 83 -30 37 -86 113 -126 169 -44 61 -84 106 -100 112 -41 16 -74 20 -106 12z"/>
    <path d="M24133 14237 l-703 -451 22 -23 c16 -17 36 -88 84 -305 35 -156 64 -290 64 -298 0 -10 -69 -51 -190 -114 l-189 -100 15 -25 c10 -19 275 -1006 349 -1302 l7 -27 384 166 c211 91 386 163 389 160 10 -9 45 -208 65 -364 93 -722 7 -1510 -259 -2374 -59 -193 -195 -578 -209 -592 -4 -4 -95 15 -202 42 -107 27 -202 50 -210 50 -11 0 -23 -30 -44 -107 -50 -187 -141 -452 -220 -635 -126 -295 -185 -404 -383 -706 -62 -95 -113 -179 -113 -186 0 -7 48 -66 106 -132 59 -65 113 -127 121 -136 14 -16 7 -27 -73 -124 -95 -116 -152 -175 -344 -359 -138 -132 -186 -204 -197 -295 -7 -64 17 -132 60 -164 77 -57 344 -139 541 -167 212 -29 314 -24 491 26 345 96 587 286 830 650 77 114 185 314 185 340 0 8 -9 15 -19 15 -44 0 -51 9 -31 43 l19 32 -130 79 c-71 44 -132 82 -134 86 -2 3 43 77 100 163 86 130 197 328 216 386 3 9 79 -32 248 -135 232 -141 244 -146 258 -128 8 10 48 72 89 137 584 919 913 1928 994 3046 13 187 14 715 0 906 -81 1150 -439 2236 -1048 3175 -41 63 -85 130 -99 148 l-25 33 -32 -20 -32 -20 -18 29 c-9 17 -20 30 -24 29 -4 0 -323 -203 -709 -452z m815 171 c216 -334 417 -720 565 -1088 472 -1176 596 -2490 351 -3718 -113 -570 -287 -1080 -544 -1592 -144 -289 -327 -597 -350 -592 -15 3 -1030 620 -1047 636 -10 9 7 59 82 238 339 814 534 1558 596 2283 15 182 16 623 0 795 -29 317 -87 627 -172 907 -142 474 -396 970 -703 1377 -37 48 -66 92 -64 97 2 7 1196 779 1204 779 1 0 38 -55 82 -122z m-1120 -1166 c114 -180 291 -536 367 -735 31 -82 55 -150 53 -152 -7 -7 -298 -38 -304 -32 -3 3 -60 248 -125 544 -66 296 -122 547 -125 558 -8 33 32 -21 134 -183z m-183 -274 c26 -109 93 -423 91 -425 -3 -4 -276 336 -279 348 -2 10 146 95 170 98 7 0 15 -9 18 -21z m30 -593 c93 -115 170 -212 172 -214 3 -5 371 35 424 45 25 5 27 2 43 -62 9 -36 15 -68 13 -70 -10 -11 -630 -274 -634 -270 -4 4 -190 702 -210 786 -5 22 -4 23 9 10 8 -8 91 -109 183 -225z m159 -3916 c32 -7 60 -18 62 -24 3 -6 -15 -58 -40 -115 l-44 -104 -10 39 c-55 208 -59 230 -39 222 6 -2 38 -10 71 -18z m-174 -251 c23 -95 48 -182 55 -193 7 -11 160 -110 341 -219 181 -109 334 -204 341 -210 19 -17 -92 -231 -210 -408 -54 -81 -101 -149 -105 -151 -4 -3 -149 83 -322 189 l-315 193 -30 -18 c-59 -36 -342 -191 -348 -191 -3 0 30 57 74 126 149 238 312 591 411 892 29 89 56 162 59 162 4 0 26 -78 49 -172z m250 -1258 c201 -123 382 -234 403 -247 l38 -24 -42 -77 c-105 -194 -273 -412 -399 -521 -148 -128 -260 -188 -445 -240 -189 -53 -256 -55 -493 -17 -108 18 -203 44 -329 92 -83 32 -93 38 -93 60 0 49 44 110 154 213 189 179 273 268 415 445 140 175 263 350 341 488 41 73 45 77 64 65 12 -8 185 -114 386 -237z m-610 194 c0 -10 -149 -231 -164 -243 -11 -10 -23 -2 -59 36 -25 26 -46 52 -47 58 -2 5 55 42 126 82 126 71 144 79 144 67z"/>
    <path d="M24677 14148 c4 -47 2 -56 -18 -74 -13 -12 -138 -89 -278 -173 -222 -132 -259 -151 -297 -151 -23 0 -46 5 -49 10 -9 15 -35 12 -35 -3 0 -7 14 -35 32 -63 17 -27 48 -78 68 -114 42 -77 66 -86 62 -23 -3 36 1 47 30 76 18 19 146 103 284 186 285 172 301 177 334 111 11 -21 20 -53 20 -70 0 -67 -61 -143 -145 -181 -80 -37 -156 -15 -189 55 -9 20 -21 36 -27 36 -21 0 -21 -34 2 -82 57 -122 178 -160 306 -94 86 44 133 113 133 198 0 50 -34 125 -107 240 -27 42 -60 97 -74 122 -14 27 -31 46 -41 46 -14 0 -16 -8 -11 -52z"/>
    <path d="M25020 13600 c0 -41 -5 -55 -24 -73 -13 -12 -145 -78 -292 -147 -284 -132 -322 -143 -363 -106 -16 14 -24 17 -32 9 -8 -8 1 -37 34 -105 26 -51 53 -110 61 -130 20 -50 36 -48 36 3 0 22 5 50 11 61 6 12 66 47 142 83 127 61 133 63 150 46 10 -10 21 -36 24 -57 5 -37 1 -43 -92 -152 -132 -154 -145 -176 -145 -229 0 -38 5 -50 34 -79 35 -35 76 -45 76 -20 0 8 -4 18 -10 21 -25 15 -3 55 101 183 62 75 116 141 120 146 6 6 26 2 54 -12 161 -78 350 70 305 239 -7 24 -40 103 -74 174 -35 72 -68 145 -75 163 -21 50 -41 41 -41 -18z m96 -216 c10 -14 19 -46 21 -72 6 -56 -18 -98 -85 -149 -98 -75 -167 -66 -222 29 -50 88 -48 91 93 158 138 67 168 72 193 34z"/>
    <path d="M25012 12810 c-184 -49 -294 -143 -329 -285 -13 -53 -14 -75 -4 -122 25 -125 89 -216 187 -264 187 -92 502 -10 614 160 125 188 17 458 -207 516 -76 20 -172 18 -261 -5z m357 -100 c92 -46 127 -169 78 -266 -60 -118 -228 -216 -413 -242 -75 -10 -165 -1 -192 20 -86 64 -123 141 -103 216 32 115 185 229 381 282 92 25 189 21 249 -10z"/>
    <path d="M25205 12030 c-73 -10 -152 -40 -210 -80 -169 -117 -190 -306 -56 -510 74 -112 71 -111 166 -94 95 17 128 12 154 -24 30 -41 46 -18 33 45 -6 26 -14 84 -18 128 -7 84 -18 120 -35 110 -5 -4 -9 -17 -9 -30 0 -65 -45 -99 -142 -111 -103 -12 -164 46 -175 165 -9 96 43 169 165 229 92 46 146 57 282 57 117 0 129 -2 183 -29 84 -41 117 -94 117 -190 -1 -118 -47 -189 -162 -247 -90 -45 -67 -55 79 -34 65 9 120 19 122 21 3 2 -5 13 -17 24 l-21 20 21 57 c31 85 31 221 0 288 -69 149 -266 234 -477 205z"/>
    <path d="M24936 11228 c-3 -7 -7 -53 -10 -103 -3 -49 -9 -111 -12 -137 -5 -38 -4 -48 8 -48 8 0 21 15 29 33 24 54 49 60 204 44 75 -8 141 -19 147 -25 15 -15 1 -79 -21 -101 -10 -10 -88 -42 -172 -70 -85 -28 -168 -63 -186 -77 -38 -29 -51 -79 -35 -130 6 -22 7 -56 1 -97 -18 -126 -39 -324 -39 -363 0 -57 31 -101 93 -129 52 -25 97 -32 97 -17 0 5 -18 24 -41 42 -58 47 -79 97 -79 197 0 77 2 84 25 99 22 15 36 15 166 1 88 -10 147 -21 156 -29 10 -11 11 -28 5 -76 -10 -73 -31 -100 -82 -108 -43 -7 -67 -20 -57 -30 10 -10 264 -27 285 -19 13 5 6 13 -30 35 -30 19 -50 39 -54 55 -8 34 0 123 13 136 13 13 270 -14 285 -29 6 -6 10 -36 9 -68 -2 -123 -39 -184 -110 -184 -45 0 -61 -14 -33 -29 31 -16 163 -17 172 0 4 8 11 59 14 114 4 55 15 165 25 245 10 80 15 149 11 154 -12 13 -28 -1 -50 -45 -14 -26 -29 -41 -47 -45 -40 -11 -627 52 -662 70 -32 17 -48 56 -27 68 8 4 11 18 9 31 -3 13 1 28 9 34 14 12 338 133 356 133 6 0 23 -19 39 -42 54 -82 181 -114 278 -69 84 38 110 99 125 284 6 75 15 159 19 186 9 57 -2 86 -22 59 -6 -9 -20 -30 -29 -47 -9 -17 -28 -33 -42 -37 -32 -8 -610 50 -649 65 -15 6 -37 27 -48 46 -22 36 -37 44 -43 23z m603 -249 c64 -6 126 -18 139 -25 46 -29 19 -126 -50 -177 -18 -13 -48 -21 -96 -25 -80 -5 -136 9 -157 42 -22 32 -29 105 -16 154 14 49 6 48 180 31z"/>
    <path d="M24852 9938 c-5 -7 -26 -44 -47 -83 -34 -65 -37 -75 -33 -141 3 -59 8 -77 32 -108 39 -52 104 -91 176 -106 115 -25 186 2 269 101 127 152 143 169 167 175 40 10 90 -5 125 -36 29 -28 31 -34 27 -84 -8 -94 -67 -144 -197 -168 -58 -11 -72 -20 -52 -32 5 -3 44 -10 87 -16 44 -6 94 -13 113 -16 l33 -5 -6 34 c-5 29 -1 43 28 86 74 110 56 218 -48 285 -55 35 -109 49 -177 44 -73 -5 -107 -31 -200 -148 -95 -121 -119 -140 -177 -140 -146 1 -209 154 -105 255 39 38 138 75 199 75 36 0 48 23 18 34 -31 12 -221 7 -232 -6z"/>
    <path d="M24697 9373 c-56 -82 -67 -110 -67 -170 0 -128 129 -236 280 -237 84 -1 112 15 220 119 104 101 125 115 168 115 71 0 122 -48 122 -116 0 -90 -79 -152 -205 -161 -113 -9 -99 -25 52 -63 104 -26 103 -26 103 11 0 22 12 44 40 76 106 121 67 266 -90 336 -55 25 -143 27 -185 5 -16 -9 -75 -59 -130 -110 -55 -52 -110 -100 -122 -106 -50 -27 -139 0 -182 54 -27 34 -28 106 -2 154 28 54 111 92 211 98 59 3 80 8 80 18 0 8 -1 14 -3 14 -1 0 -57 7 -122 15 -66 8 -120 15 -121 15 0 0 -22 -30 -47 -67z"/>
    <path d="M24540 8975 c-5 -14 -10 -30 -10 -34 0 -4 -18 -53 -40 -110 -22 -56 -37 -107 -34 -113 4 -6 21 6 39 28 28 33 38 39 71 37 44 -1 610 -206 636 -230 9 -8 18 -29 20 -46 6 -57 25 -40 54 45 15 46 38 107 51 136 12 29 23 57 23 62 0 20 -27 9 -59 -25 -22 -23 -42 -35 -60 -35 -39 0 -602 208 -628 232 -12 11 -23 32 -25 46 -4 35 -26 39 -38 7z"/>
    <path d="M24526 8603 c-138 -42 -227 -172 -227 -328 0 -137 54 -228 187 -315 103 -67 195 -95 314 -95 85 1 101 4 154 30 116 58 179 167 180 310 0 67 -4 90 -27 138 -87 190 -382 322 -581 260z m154 -113 c246 -39 410 -158 410 -297 -1 -219 -278 -280 -572 -126 -118 62 -172 132 -172 223 0 102 51 166 155 194 66 18 95 19 179 6z"/>
    <path d="M18950 14603 c-710 -17 -1446 -98 -2085 -229 -397 -82 -971 -216 -995 -233 -14 -9 -33 -33 -43 -52 -33 -62 -2 -179 55 -207 19 -9 5 -11 -69 -11 l-93 -1 -1 -1147 c-2 -3286 0 -3473 37 -3923 91 -1114 366 -1900 924 -2645 148 -197 282 -348 524 -591 553 -553 952 -875 1816 -1469 135 -92 270 -186 301 -207 l57 -39 123 101 c151 124 399 312 699 530 672 488 948 739 1362 1235 545 655 901 1261 1113 1900 158 474 234 901 287 1605 8 108 12 830 15 2403 l4 2248 -111 -3 c-60 -2 -110 -1 -110 1 0 2 12 12 26 24 74 58 72 199 -3 252 -25 18 -1046 221 -1457 290 -834 140 -1524 189 -2376 168z m1009 -313 c663 -38 1174 -112 2206 -319 l490 -99 -3330 0 c-1831 0 -3321 2 -3310 5 240 56 798 179 915 203 625 126 1249 197 1933 220 289 9 837 4 1096 -10z m2721 -2712 c0 -1979 -3 -2214 -36 -2593 -83 -979 -326 -1687 -842 -2458 -226 -336 -539 -722 -815 -1004 -292 -298 -484 -456 -1040 -858 -175 -126 -377 -275 -448 -332 -71 -57 -134 -103 -139 -103 -6 0 -129 82 -273 182 -702 486 -1047 762 -1522 1215 -293 279 -489 496 -672 740 -475 636 -732 1346 -828 2288 -48 478 -55 847 -55 3018 l0 1897 3335 0 3335 0 0 -1992z"/>
    <path d="M16402 10498 l3 -2953 32 -93 c91 -259 338 -680 623 -1061 114 -152 288 -356 296 -348 2 2 1 1670 -3 3705 l-6 3702 -474 0 -473 0 2 -2952z"/>
    <path d="M17970 9443 l1 -4008 526 -415 c290 -228 530 -416 535 -418 4 -2 8 1988 8 4422 l0 4426 -535 0 -535 0 0 -4007z"/>
    <path d="M19711 11418 c1 -1118 5 -3092 8 -4385 l6 -2353 528 421 527 420 0 3965 0 3964 -535 0 -535 0 1 -2032z"/>
    <path d="M21470 9874 c0 -3478 1 -3576 18 -3553 49 63 216 321 319 493 190 317 396 754 499 1060 l34 100 0 2738 0 2738 -435 0 -435 0 0 -3576z"/>
    <path d="M26492 17648 c-29 -90 -52 -168 -52 -174 0 -18 61 -124 69 -120 8 5 151 239 151 248 0 6 -110 208 -114 208 -1 0 -26 -73 -54 -162z"/>
    <path d="M26002 17748 c-18 -18 -15 -46 13 -113 32 -78 31 -113 -2 -162 -31 -44 -878 -839 -938 -880 -50 -34 -105 -40 -154 -18 -31 13 -43 15 -60 6 -11 -7 -21 -17 -21 -25 0 -7 34 -46 76 -87 42 -41 139 -146 217 -234 236 -268 263 -293 325 -311 66 -20 142 -12 225 21 66 27 152 87 168 117 19 36 -3 41 -92 18 -100 -26 -188 -23 -263 10 -101 43 -243 164 -267 227 -24 63 -2 90 265 337 138 129 184 166 205 166 19 0 43 -17 88 -62 137 -141 144 -195 44 -343 -28 -40 -27 -65 2 -65 16 0 79 57 220 198 229 229 247 265 107 211 -72 -28 -147 -29 -186 -4 -53 35 -154 152 -154 179 0 19 41 63 180 192 204 191 229 209 267 199 33 -8 161 -131 207 -199 20 -28 41 -72 47 -97 11 -40 10 -53 -5 -94 -10 -26 -31 -61 -46 -79 -51 -59 -58 -96 -18 -96 23 0 254 221 264 252 4 14 -35 60 -162 191 -92 94 -233 246 -313 337 -213 240 -210 237 -239 208z"/>
    <path d="M12323 17381 c-103 -38 -150 -81 -326 -296 -73 -88 -169 -199 -215 -247 -64 -66 -83 -92 -80 -110 5 -34 33 -34 98 1 68 36 116 39 174 11 23 -11 244 -197 491 -413 503 -438 521 -458 512 -552 -3 -27 -8 -57 -12 -66 -8 -20 21 -51 43 -47 9 2 66 65 128 142 61 76 139 166 174 201 47 47 61 68 58 86 -4 34 -33 35 -81 3 -55 -36 -112 -42 -163 -16 -22 11 -131 100 -242 197 -151 132 -202 182 -202 199 0 27 61 101 101 121 15 8 41 15 58 15 16 0 164 -43 328 -96 316 -101 396 -117 469 -94 105 33 190 204 138 278 -22 32 -46 27 -69 -15 -35 -66 -33 -66 -430 51 -197 58 -362 111 -366 118 -4 6 -5 41 -2 77 15 176 -88 336 -274 428 -68 33 -85 37 -167 40 -71 3 -102 -1 -143 -16z m140 -207 c59 -21 118 -57 188 -116 123 -102 148 -187 89 -305 -40 -80 -137 -183 -171 -183 -19 0 -79 46 -231 178 -112 99 -214 191 -226 207 -46 58 -16 123 91 205 52 39 170 46 260 14z"/>
    <path d="M26682 16479 c-139 -21 -349 -103 -477 -186 -198 -129 -365 -338 -421 -528 -23 -78 -24 -230 -1 -303 45 -146 165 -301 288 -375 106 -62 205 -89 334 -91 134 -1 198 14 193 47 -3 19 -12 23 -63 30 -33 5 -98 15 -145 22 -209 35 -351 166 -383 353 -44 251 225 629 568 800 137 68 212 87 350 87 111 0 125 -2 181 -28 167 -77 244 -252 199 -453 -23 -106 -53 -178 -126 -301 -60 -100 -65 -123 -31 -123 24 0 417 312 417 331 0 11 -11 13 -46 11 -29 -2 -49 1 -56 10 -7 7 -17 59 -23 115 -14 134 -33 201 -78 287 -98 188 -276 293 -507 301 -60 2 -138 0 -173 -6z"/>
    <path d="M11466 16428 c-19 -29 -82 -132 -141 -228 -59 -96 -161 -254 -227 -350 -141 -204 -146 -214 -128 -235 19 -23 54 -18 96 16 58 46 88 59 137 59 40 0 66 -14 263 -142 535 -346 831 -542 857 -566 47 -44 60 -78 53 -136 -6 -45 -4 -55 15 -71 21 -20 21 -20 43 8 13 16 42 63 66 105 24 42 117 185 206 318 176 262 186 283 164 377 -21 95 -94 201 -176 255 -87 58 -95 38 -31 -87 40 -80 42 -87 42 -175 0 -110 -20 -177 -84 -285 -33 -54 -57 -82 -83 -96 -37 -19 -37 -19 -85 1 -65 28 -451 279 -486 316 -33 35 -33 35 36 147 88 141 135 159 285 111 52 -17 75 -21 83 -13 23 23 -14 53 -198 164 -104 62 -208 126 -232 141 -51 32 -81 36 -81 12 0 -9 19 -47 42 -83 32 -50 43 -79 46 -119 4 -49 1 -58 -44 -132 -27 -45 -59 -90 -71 -102 -22 -21 -24 -21 -58 -5 -19 9 -119 72 -223 140 -179 118 -232 162 -232 194 0 24 66 142 119 215 88 119 168 145 289 94 34 -14 68 -26 77 -26 27 0 29 30 4 54 -31 30 -276 176 -294 176 -8 0 -30 -24 -49 -52z"/>
    <path d="M27715 15546 c-14 -10 -18 -24 -17 -52 4 -85 -7 -121 -54 -172 -24 -28 -67 -64 -94 -82 -68 -44 -951 -457 -1018 -476 -64 -19 -97 -13 -179 32 -64 36 -110 43 -119 20 -3 -7 23 -69 58 -137 35 -68 78 -161 96 -206 42 -103 64 -132 89 -117 15 10 18 23 14 92 -2 60 1 88 14 116 25 53 103 118 202 169 129 66 798 377 812 377 6 0 11 -7 11 -16 0 -10 -172 -334 -382 -722 -210 -388 -384 -718 -386 -734 -3 -22 0 -28 14 -28 9 0 317 140 683 312 656 307 667 312 731 312 59 1 70 -2 110 -31 49 -37 90 -44 90 -15 0 10 -27 70 -59 134 -32 64 -73 154 -91 200 -39 100 -53 114 -84 82 -12 -12 -16 -37 -16 -105 0 -111 -19 -156 -82 -193 -69 -40 -814 -386 -832 -386 -9 0 -16 7 -16 16 0 16 662 1227 686 1255 23 26 17 48 -45 174 -33 66 -66 137 -75 158 -17 40 -31 45 -61 23z"/>
    <path d="M10861 15523 c-7 -15 -26 -62 -41 -104 -16 -42 -49 -116 -75 -164 -76 -144 -48 -189 55 -91 54 52 62 56 107 56 61 0 146 -40 229 -106 115 -93 705 -667 695 -677 -6 -6 -66 -4 -163 7 -886 96 -964 107 -1044 149 -37 19 -44 34 -44 92 0 46 -17 69 -47 63 -12 -2 -30 -33 -55 -98 -21 -52 -70 -161 -110 -242 -61 -124 -70 -149 -59 -162 20 -24 35 -20 85 24 26 21 61 42 79 45 18 4 386 -25 818 -64 433 -39 807 -71 831 -71 62 0 77 19 49 59 -12 17 -34 40 -49 51 -15 12 -85 79 -157 149 -71 70 -324 315 -562 544 -410 396 -433 420 -452 475 -28 76 -35 86 -58 90 -13 2 -23 -6 -32 -25z"/>
    <path d="M10274 14168 c-4 -6 -29 -84 -54 -172 -26 -89 -64 -205 -83 -258 -20 -54 -34 -104 -31 -113 13 -33 52 -16 95 41 50 68 110 100 168 89 47 -9 1167 -373 1206 -392 52 -26 85 -65 101 -119 16 -56 35 -79 57 -71 8 3 28 58 46 122 18 64 55 177 82 252 28 75 49 147 47 162 -5 46 -34 37 -72 -23 -47 -74 -75 -91 -151 -91 -50 1 -154 32 -635 189 -556 181 -637 210 -671 238 -24 20 -39 53 -39 88 0 17 -5 40 -10 51 -12 21 -45 26 -56 7z"/>
    <path d="M28383 13998 c-6 -7 -13 -48 -15 -90 -4 -81 -18 -112 -69 -150 -33 -24 -1181 -398 -1245 -405 -55 -6 -76 2 -136 50 -33 27 -41 29 -63 19 l-25 -12 26 -67 c47 -124 65 -177 104 -317 41 -145 55 -171 83 -160 14 5 17 20 17 84 0 140 23 156 400 279 747 244 869 283 907 293 64 16 107 3 152 -43 44 -46 74 -49 79 -7 2 14 -16 77 -40 139 -23 63 -60 177 -83 254 -34 119 -43 140 -61 143 -11 2 -25 -3 -31 -10z"/>
    <path d="M10046 13498 c-3 -13 -14 -70 -25 -128 -11 -58 -32 -145 -46 -194 -31 -107 -30 -130 6 -134 23 -3 33 6 71 60 48 70 93 104 146 114 28 5 138 -16 462 -91 421 -97 490 -115 490 -133 0 -5 -35 -25 -77 -45 -110 -49 -1223 -523 -1251 -531 -31 -10 -37 -26 -57 -146 -10 -57 -26 -129 -36 -159 -21 -61 -14 -81 30 -81 19 0 35 12 61 47 56 75 86 88 210 87 98 0 140 -8 610 -118 278 -65 521 -126 540 -136 53 -27 86 -68 115 -143 21 -52 33 -69 52 -73 33 -9 37 -1 57 119 9 56 30 148 47 205 16 56 31 119 32 140 2 33 -1 37 -24 40 -22 3 -32 -6 -66 -61 -56 -88 -86 -102 -223 -101 -96 1 -140 9 -520 98 -448 104 -480 113 -480 127 0 4 13 15 29 24 22 11 1415 620 1468 642 13 5 28 41 20 49 -2 3 -188 47 -413 99 -225 53 -546 127 -714 166 -168 39 -321 80 -341 90 -50 25 -95 80 -104 125 -4 22 -11 45 -17 52 -17 20 -47 14 -52 -10z"/>
    <path d="M27910 13133 c-329 -26 -646 -205 -758 -428 -55 -109 -73 -280 -43 -405 31 -130 118 -269 224 -358 119 -99 347 -174 347 -114 0 11 -37 39 -100 76 -171 102 -251 191 -285 321 -30 116 -10 224 62 332 96 145 314 277 569 344 77 21 112 24 259 24 160 0 175 -2 249 -28 104 -36 154 -67 211 -128 72 -77 90 -125 90 -240 0 -90 -2 -99 -39 -174 -49 -99 -163 -220 -287 -305 -61 -42 -89 -67 -89 -81 0 -14 7 -19 25 -19 20 0 361 82 483 116 35 10 26 31 -20 46 -29 10 -44 21 -46 35 -2 11 11 62 27 114 58 182 61 303 11 446 -102 292 -454 460 -890 426z"/>
    <path d="M9746 11908 c-3 -13 -7 -72 -10 -133 -3 -60 -12 -146 -20 -191 -18 -99 -13 -126 22 -122 20 2 33 17 59 70 26 51 42 70 70 83 48 23 143 16 246 -19 87 -29 890 -411 895 -425 2 -5 -2 -12 -7 -15 -13 -8 -854 -191 -970 -211 -111 -20 -230 -20 -258 0 -12 8 -27 32 -34 53 -6 20 -16 43 -22 50 -12 15 -44 16 -53 0 -4 -6 -11 -73 -15 -148 -4 -75 -17 -189 -28 -254 -11 -64 -17 -124 -14 -132 12 -31 55 -12 83 36 16 27 42 54 66 67 24 13 331 90 814 203 426 100 791 189 810 198 77 37 93 28 -720 419 -794 382 -771 369 -852 471 -23 29 -56 29 -62 0z"/>
    <path d="M27200 11753 c0 -16 7 -66 15 -113 8 -47 15 -119 16 -160 1 -41 4 -102 8 -135 5 -52 9 -60 28 -63 25 -4 32 8 57 99 20 71 65 115 128 124 55 8 269 -29 324 -56 26 -12 46 -30 52 -47 10 -27 42 -335 42 -404 0 -45 -28 -69 -135 -118 -230 -105 -285 -106 -368 -6 -21 25 -44 46 -51 46 -30 0 -33 -25 -15 -150 10 -69 22 -191 27 -271 5 -80 12 -151 16 -157 10 -16 41 -15 53 1 6 6 13 30 16 52 4 26 18 50 39 72 24 23 228 124 743 366 853 401 817 384 813 404 -2 13 -172 59 -808 218 -443 111 -822 210 -843 220 -21 10 -55 38 -75 61 -44 53 -82 60 -82 17z m1100 -417 c165 -41 245 -65 245 -74 0 -14 -459 -239 -506 -249 -15 -3 -30 0 -34 7 -9 14 -43 351 -37 368 8 22 84 11 332 -52z"/>
    <path d="M10920 7924 c-140 -64 -257 -118 -259 -120 -3 -3 33 -44 80 -92 47 -48 104 -109 126 -137 49 -61 163 -235 163 -250 0 -12 -156 -65 -280 -95 -47 -11 -148 -27 -225 -36 -77 -9 -140 -17 -141 -17 -1 -1 50 -114 112 -252 62 -137 115 -254 117 -260 3 -5 42 26 88 70 116 112 180 164 279 228 87 56 170 101 175 95 1 -2 19 -52 38 -113 38 -120 63 -254 76 -413 4 -56 11 -105 14 -108 5 -5 407 166 490 208 16 8 12 16 -35 70 -136 155 -236 293 -292 405 -32 64 -32 69 -3 77 173 49 381 86 492 86 76 0 76 -4 -40 261 -59 134 -110 247 -113 251 -4 3 -43 -25 -87 -64 -157 -137 -379 -289 -396 -271 -25 27 -81 260 -99 413 -6 52 -15 114 -18 137 l-7 42 -255 -115z"/>
    <path d="M27450 8033 c0 -5 -7 -69 -16 -143 -15 -132 -71 -376 -96 -425 l-14 -25 -69 40 c-98 58 -185 122 -302 222 -88 76 -104 86 -111 70 -5 -9 -56 -122 -112 -251 -75 -169 -100 -235 -91 -241 7 -4 54 -10 104 -14 166 -11 431 -67 461 -96 22 -22 -118 -238 -273 -420 -49 -58 -86 -108 -83 -112 4 -3 118 -56 254 -116 l246 -109 6 46 c3 25 8 82 11 126 4 44 15 125 26 180 19 101 77 295 88 295 14 0 167 -92 240 -145 43 -31 127 -102 186 -158 60 -56 110 -97 112 -92 2 6 54 123 117 260 62 138 112 251 112 252 -1 0 -64 8 -141 17 -78 9 -188 28 -245 41 -124 30 -260 76 -260 89 0 14 71 127 129 206 31 41 98 119 150 172 52 54 92 100 90 103 -4 3 -406 186 -486 221 -18 8 -33 11 -33 7z"/>
    <path d="M14120 4585 c-10 -13 -6 -28 25 -89 32 -64 37 -81 31 -115 -3 -23 -105 -389 -226 -814 -143 -503 -220 -790 -220 -820 0 -37 4 -47 20 -52 15 -5 214 100 741 390 397 219 740 406 763 416 27 12 64 19 108 19 82 0 98 6 98 35 0 16 -24 38 -97 90 -54 38 -127 94 -162 124 -146 128 -170 141 -191 102 -8 -16 -3 -28 24 -65 48 -62 66 -100 66 -136 0 -70 -62 -150 -176 -227 -71 -48 -837 -473 -853 -473 -6 0 -11 7 -11 16 0 9 65 231 145 493 109 354 159 502 195 578 53 109 73 128 124 120 17 -3 50 -8 72 -12 37 -7 43 -5 49 14 3 11 3 25 0 31 -4 6 -57 46 -118 89 -62 44 -170 129 -241 190 -71 61 -135 111 -142 111 -6 0 -17 -7 -24 -15z"/>
    <path d="M23874 4147 c-3 -9 94 -389 215 -844 122 -455 221 -839 221 -853 0 -14 -11 -56 -25 -93 -35 -102 -19 -122 52 -64 23 17 69 57 104 88 35 30 116 92 180 137 64 45 120 89 123 98 16 42 -24 44 -120 8 -150 -56 -207 -16 -279 198 -36 109 -43 161 -24 200 10 22 355 299 407 327 23 12 32 9 116 -32 171 -86 255 -155 273 -225 4 -16 -3 -44 -17 -76 -30 -67 -36 -111 -17 -119 19 -7 42 9 173 121 60 51 168 135 239 186 133 95 156 124 117 145 -14 8 -28 5 -58 -11 -23 -13 -57 -21 -85 -22 -52 0 -48 -2 -584 299 -198 111 -495 278 -659 370 -165 93 -310 170 -323 173 -14 3 -25 -1 -29 -11z m473 -528 c244 -134 273 -153 273 -175 0 -11 -263 -224 -331 -267 -24 -16 -27 -16 -42 0 -17 19 -157 508 -157 549 0 13 4 24 9 24 6 0 117 -59 248 -131z"/>
    <path d="M23100 3573 c-8 -3 -62 -33 -120 -67 -58 -33 -184 -101 -280 -151 -141 -72 -176 -94 -178 -113 -5 -32 17 -36 112 -19 97 18 141 11 186 -31 25 -24 470 -846 581 -1076 50 -104 51 -141 3 -218 -36 -60 -39 -98 -7 -98 9 0 59 26 112 57 52 32 180 101 284 153 191 96 223 118 199 142 -10 10 -25 9 -76 -5 -35 -9 -81 -17 -101 -17 -43 0 -101 30 -132 70 -19 24 -449 824 -569 1061 -61 119 -59 164 8 235 44 47 30 97 -22 77z"/>
    <path d="M15259 2899 c-349 -293 -652 -546 -675 -562 -34 -24 -57 -31 -119 -37 -133 -13 -126 -40 28 -108 62 -27 173 -83 247 -126 74 -42 140 -76 146 -76 6 0 17 6 23 14 15 18 -4 51 -50 85 -45 33 -89 108 -89 151 0 50 41 110 136 200 94 89 143 117 188 104 17 -5 127 -58 244 -117 173 -88 215 -114 224 -135 21 -55 -8 -315 -43 -384 -27 -54 -57 -69 -147 -77 -73 -6 -77 -7 -77 -31 0 -22 15 -31 136 -86 75 -34 207 -101 292 -149 93 -51 163 -85 172 -81 34 12 27 37 -23 90 -35 37 -53 65 -58 91 -4 23 19 380 55 871 35 457 61 845 59 860 -2 17 -10 30 -19 32 -10 2 -271 -211 -650 -529z m381 104 c0 -32 -7 -150 -15 -263 -8 -113 -15 -215 -15 -226 0 -12 -8 -32 -18 -45 l-19 -22 -189 97 c-104 54 -193 101 -197 106 -5 4 -6 17 -3 28 8 23 423 382 443 382 9 0 13 -16 13 -57z"/>
    <path d="M22397 3123 c-3 -10 -8 -30 -11 -45 -8 -37 -37 -43 -150 -29 -313 40 -545 -23 -729 -197 -218 -207 -299 -565 -206 -918 77 -293 306 -542 559 -609 83 -23 250 -23 346 -2 332 74 589 313 644 598 12 61 4 89 -25 89 -18 0 -32 -19 -76 -102 -94 -179 -172 -264 -301 -329 -210 -106 -442 -69 -631 102 -154 139 -271 345 -313 550 -24 119 -16 299 18 390 65 176 168 277 327 321 125 34 248 20 388 -47 100 -47 153 -85 255 -183 66 -64 92 -83 110 -80 18 2 23 9 21 28 0 14 -43 128 -93 253 -73 178 -97 227 -111 227 -10 0 -20 -8 -22 -17z"/>
    <path d="M16581 3049 c-41 -16 -23 -49 49 -90 93 -54 130 -97 130 -152 0 -64 -284 -1206 -315 -1267 -31 -60 -59 -80 -126 -89 -37 -4 -56 -12 -66 -28 -13 -20 -12 -23 9 -36 13 -8 84 -27 158 -42 74 -15 214 -49 310 -75 371 -103 460 -123 514 -115 67 8 156 57 207 112 47 51 100 158 103 205 2 51 -25 46 -95 -17 -35 -31 -82 -67 -104 -80 -95 -56 -258 -69 -427 -35 -155 32 -188 57 -188 142 0 43 285 1213 311 1280 18 43 45 60 116 72 63 10 68 13 71 38 4 31 7 29 -138 58 -58 11 -184 43 -280 69 -219 61 -211 60 -239 50z"/>
    <path d="M18235 2993 c-33 -2 -74 -5 -92 -8 l-32 -6 130 -121 130 -121 69 9 70 9 -81 123 c-72 107 -85 122 -108 120 -14 -1 -53 -3 -86 -5z"/>
    <path d="M20855 2775 c-49 -7 -155 -16 -235 -20 -142 -8 -170 -14 -170 -41 0 -25 30 -42 101 -58 40 -9 92 -28 116 -42 78 -45 78 -48 123 -554 21 -248 37 -457 34 -465 -4 -8 -13 -15 -21 -15 -9 0 -83 66 -167 147 -83 82 -225 220 -316 308 -91 89 -253 246 -360 350 -107 105 -216 211 -241 238 -53 53 -71 56 -204 36 -38 -6 -117 -14 -175 -17 l-105 -7 0 -35 c0 -34 1 -35 64 -52 126 -34 176 -95 206 -249 20 -101 98 -1010 93 -1081 -5 -71 -35 -117 -108 -165 -65 -43 -80 -59 -80 -90 0 -20 5 -23 38 -23 21 0 65 5 97 11 32 6 148 16 257 23 152 9 202 16 214 27 19 19 9 48 -20 54 -11 2 -47 9 -78 15 -108 21 -166 84 -197 215 -13 50 -33 234 -55 490 -41 467 -42 495 -22 495 8 0 297 -270 642 -601 345 -331 638 -606 651 -612 17 -8 27 -7 35 1 9 9 -3 183 -52 750 -70 807 -70 785 -13 852 14 17 48 42 75 56 39 20 49 29 46 47 -4 28 -44 30 -173 12z"/>
    <path d="M17862 2748 c-34 -34 -7 -62 93 -99 35 -13 75 -37 98 -59 36 -37 37 -39 37 -111 0 -164 -79 -1202 -96 -1251 -18 -55 -50 -84 -112 -101 -48 -13 -75 -48 -54 -69 6 -6 86 -14 199 -19 103 -4 287 -17 408 -29 121 -12 261 -22 310 -23 80 -2 96 1 146 26 109 53 196 185 206 311 9 102 -16 100 -97 -7 -83 -110 -188 -166 -353 -189 -100 -13 -239 -6 -290 15 -27 12 -42 27 -54 54 -15 35 -15 59 4 326 25 362 7 335 200 321 205 -16 246 -44 279 -190 9 -40 22 -78 29 -84 17 -14 44 -2 50 24 10 41 22 531 14 554 -14 36 -37 25 -75 -35 -88 -139 -126 -157 -302 -142 -130 11 -141 14 -152 44 -11 29 24 516 40 544 18 34 44 41 154 41 132 0 247 -16 308 -42 58 -25 115 -85 122 -130 3 -18 9 -55 14 -83 7 -47 9 -50 37 -50 39 0 43 16 44 211 1 138 -1 163 -14 168 -9 3 -147 13 -308 21 -281 15 -541 34 -734 55 -118 13 -136 13 -151 -2z"/>
  </g>
</svg>